# xmcd
#
# Track frame offsets:
#	150
#	12300
#	18650
#	32492
#	39820
#	53420
#	69245
#	82810
#	100632
#	110420
#	117660
#	124427
#	134702
#	145612
#	160040
#	172087
#	180865
#	212987
#	224200
#
# Disc length: 3351 seconds
# Revision: 39
# Processed by: cddbd v1.5.2PL0 Copyright (c) Steve Scherf et al.
# Submitted via: dBpowerAMP V12.0
#
DISCID=060d1513
DTITLE=Johnny Cash - At Folsom Prison
DYEAR=1968
DGENRE=Country
TTITLE0=Folsom Prison Blues
TTITLE1=Busted
TTITLE2=Dark As The Dungeon
TTITLE3=I Still Miss Someone
TTITLE4=Cocaine Blues
TTITLE5=25 Minutes To Go
TTITLE6=Orange Blossom Special
TTITLE7=The Long Black Veil
TTITLE8=Send A Picture Of Mother
TTITLE9=The Wall
TTITLE10=Dirty Old Egg-Suckin' Dog
TTITLE11=Flushed From The Bathroom Of Your Heart
TTITLE12=Joe Bean
TTITLE13=Jackson
TTITLE14=Give My Love To Rose
TTITLE15=I Got Stripes
TTITLE16=The Legend Of John Henry's Hammer
TTITLE17=Green, Green Grass Of Home
TTITLE18=Greystone Chapel
EXTD=
EXTT0=
EXTT1=
EXTT2=
EXTT3=
EXTT4=
EXTT5=
EXTT6=
EXTT7=
EXTT8=
EXTT9=
EXTT10=
EXTT11=
EXTT12=
EXTT13=
EXTT14=
EXTT15=
EXTT16=
EXTT17=
EXTT18=
PLAYORDER=
